<svg width="138" height="84" viewBox="0 0 138 84" fill="none" xmlns="http://www.w3.org/2000/svg">
<path fill-rule="evenodd" clip-rule="evenodd" d="M130.429 29.626C129.333 30.5714 126.841 31.0292 125.088 30.4108C124.963 30.3676 124.842 30.3009 124.716 30.2317C124.497 30.1104 124.264 29.9817 123.968 29.959C122.364 29.8346 121.37 30.4536 120.202 31.1813L120.188 31.1897C120.07 31.2621 119.933 31.35 119.781 31.4479C118.693 32.1454 116.817 33.3487 115.396 33.0567C114.996 33.0026 114.891 32.9201 114.701 32.7722C114.661 32.7412 114.618 32.7073 114.567 32.6702C114.4 32.5454 114.394 32.5394 114.281 32.3729C114.24 32.3122 114.212 32.2601 114.188 32.2122C114.144 32.1287 114.107 32.0576 114.013 31.9746C114.002 31.8479 113.958 31.7462 113.912 31.6387C113.879 31.5646 113.846 31.4876 113.822 31.3978C113.774 31.2076 113.732 30.8984 113.72 30.6843C113.691 30.1195 113.732 29.6795 114.007 29.2871C115.399 27.3058 116.753 27.353 118.162 27.4021C119.202 27.4383 120.272 27.4755 121.41 26.7007C122.054 26.2578 122.57 25.8218 123.136 25.3431C123.315 25.1919 123.499 25.0365 123.693 24.8753C124.194 24.4651 124.701 24.1975 125.333 23.9894C125.971 23.7813 126.877 23.7278 127.55 23.7873C127.991 23.8229 129.011 24.1856 129.458 24.3937C131.681 25.4283 132.212 28.086 130.429 29.626ZM114.658 45.1257C114.638 45.2364 114.617 45.3477 114.597 45.4595L114.257 47.4216C114.241 47.5635 114.23 47.5893 114.214 47.6291C114.206 47.6476 114.197 47.6692 114.185 47.707C114.126 47.9154 114.104 48.146 114.081 48.3789C114.065 48.5447 114.048 48.7116 114.019 48.8724C113.976 49.0801 113.941 49.2967 113.905 49.5173C113.875 49.7009 113.845 49.8871 113.81 50.0734L111.926 60.8055L102.633 60.7877C102.67 60.8336 102.678 60.8518 102.692 60.865C102.706 60.8792 102.726 60.8877 102.794 60.9185C102.812 60.9304 102.955 60.9601 102.985 60.9661L103.914 61.2515C106.615 62.0839 110.764 62.7973 113.488 63.1303C115.467 63.3741 117.416 63.5406 119.449 63.6833C120.3 63.7404 120.912 63.7665 121.433 63.7886C122.645 63.8402 123.365 63.8708 125.458 64.2243C128.027 64.6643 132.879 66.1983 135.204 67.6075C138.942 69.8668 138.793 74.8494 135.586 75.5272C133.536 75.9618 131.317 74.5504 129.555 73.4295C129.196 73.2009 128.856 72.9844 128.54 72.7981C125.334 70.9135 122.651 70.0898 119.465 69.1116C118.611 68.8492 117.72 68.5756 116.773 68.2674L107.002 64.9675C104.904 64.2422 101.733 63.273 99.4794 62.6606L96.9102 61.9768C96.8055 61.9505 96.6845 61.9177 96.5519 61.8818C95.6954 61.6496 94.3581 61.2871 93.8522 61.7093C93.5358 61.9714 93.7082 62.4079 93.86 62.7923C93.8942 62.8787 93.9273 62.9625 93.9535 63.0411C94.4662 64.593 94.8715 66.2459 93.3455 67.0842C92.1592 67.7383 91.575 67.5658 90.812 66.7513C90.3321 66.2417 89.4055 64.645 88.8597 63.7045C88.775 63.5585 88.6995 63.4284 88.6362 63.3206C88.5816 63.2266 88.5295 63.1321 88.4781 63.0387C88.3048 62.7242 88.1388 62.4228 87.909 62.2028C87.0863 61.4298 85.9359 61.9947 85.2861 62.5714C82.4427 65.0805 84.2846 67.7145 86.2399 69.8133C87.2375 70.8874 88.0408 71.6123 88.9722 72.4529C89.304 72.7524 89.6521 73.0666 90.0311 73.4165C90.3583 73.7177 90.6979 74.0193 91.0414 74.3244C91.9998 75.1756 92.9886 76.0538 93.8224 77.0255C94.7702 78.1314 96.2307 80.486 95.0921 82.341C95.0369 82.4008 94.9864 82.4563 94.9391 82.5083C94.5682 82.9161 94.3985 83.1027 93.727 83.3875C93.1488 83.6372 92.3261 83.8037 91.6466 83.5659C89.8349 82.9324 88.499 79.7767 87.5413 77.5146C87.3394 77.0376 87.1542 76.6003 86.985 76.2347C86.9009 76.0517 86.8278 75.8717 86.7561 75.6951C86.6043 75.3212 86.4587 74.9627 86.2279 74.6235C86.1445 74.0408 85.0655 72.1797 84.7436 71.71C83.3428 69.6706 82.3592 68.8026 80.2371 67.5421C79.6886 67.2091 77.793 66.1864 77.185 66.234C76.3743 65.7643 75.1344 65.9724 74.6634 66.5848C74.121 67.2923 74.1746 68.422 74.3415 69.4447C74.3494 69.4939 74.3573 69.5425 74.365 69.5903C74.5328 70.6291 74.6498 71.353 73.966 72.1203C72.3207 73.9575 67.9632 73.4997 66.4371 72.0787C65.1025 70.8377 65.8692 69.7544 66.6109 68.7063C66.8465 68.3735 67.0795 68.0441 67.2419 67.7145C68.2851 65.6216 66.7411 64.2897 65.1615 63.7011C64.3269 63.3919 63.2897 63.2195 62.2823 63.2076C61.1079 63.1898 60.4164 63.3919 59.6773 63.9211C58.4791 64.7773 57.722 66.3767 57.3524 68.3031C57.1557 69.302 57.108 70.3663 57.1259 71.4306C57.1319 71.7754 57.2988 73.9456 57.6266 74.2489C57.6228 74.4005 57.7523 74.8662 57.8667 75.2779C57.9318 75.512 57.992 75.7287 58.0201 75.8602C58.1453 76.4369 58.2406 76.8947 58.3002 77.5428C58.4135 78.7439 58.3837 80.0103 57.9426 81.0092C57.2749 82.5075 55.8741 83.328 54.1871 83.1913C53.442 83.1318 53.2512 82.9594 52.8935 82.5254C51.3675 80.6703 51.5821 78.7676 52.2319 76.2288C52.3539 75.7447 52.8218 74.3884 53.2665 73.0993C53.7338 71.7446 54.1755 70.4642 54.1633 70.3484C54.6044 69.8787 54.4851 68.2674 54.4077 67.7561C54.3747 67.5352 54.3375 67.3118 54.3002 67.0872C54.1959 66.4592 54.0898 65.8213 54.0679 65.1994C54.0083 63.4967 54.5965 62.477 55.0278 61.7294C55.2441 61.3544 55.421 61.0479 55.4568 60.758L42.2947 60.7461L42.7358 58.2132C42.6419 58.2734 42.4593 58.456 42.2824 58.6328C42.145 58.7702 42.0112 58.904 41.9251 58.9742C39.4124 61.0389 36.9614 61.0379 33.8563 61.0367C33.6171 61.0366 33.3739 61.0365 33.1266 61.0374L33.0431 60.8828C33.0005 60.7835 33.0172 60.8027 33.0249 60.8116C33.0302 60.8176 33.0314 60.819 33.0073 60.7758C32.1594 60.7272 31.2287 60.742 30.3222 60.7564C29.8968 60.7632 29.4767 60.7698 29.073 60.7698L27.5708 60.758C27.4893 60.758 27.4384 60.764 27.3817 60.7708C27.3264 60.7775 27.2655 60.7847 27.1655 60.7877H21.3773C21.0037 60.7877 20.5955 60.796 20.1759 60.8046C19.2698 60.8231 18.3106 60.8427 17.5324 60.7817C17.5249 60.6594 17.7717 59.3587 18.0672 57.8014C18.4755 55.6501 18.9767 53.0092 19.0286 52.309C18.4698 52.3955 17.7378 52.5949 17.0683 52.7774C16.8165 52.846 16.5736 52.9121 16.3521 52.969C15.5414 53.1831 14.6472 53.5458 13.9438 53.8549L9.37163 55.7873C9.05189 55.8784 8.74268 55.9768 8.43584 56.0745C7.3011 56.4355 6.19878 56.7863 4.71602 56.7208C2.82636 56.6435 1.80701 55.7932 1.00823 54.8717C0.0425289 53.7539 -0.517814 52.3031 0.680365 50.9534C1.46127 50.0675 3.16614 49.4135 4.8412 49.6751C5.19914 49.748 5.4926 49.8174 5.75317 49.8791C6.72503 50.1091 7.23951 50.2309 8.93647 50.0199C11.4161 49.7165 13.7797 49.0051 16.123 48.2998C16.2133 48.2727 16.3036 48.2455 16.3938 48.2184C16.45 48.2014 16.559 48.1689 16.705 48.1254C17.5819 47.8641 19.7933 47.205 19.9108 47.1184C19.9417 47.0917 19.9598 47.082 19.9724 47.0676C19.9964 47.0402 20.0009 46.9957 20.036 46.7854C20.3818 44.8887 22.3966 33.7167 22.3668 33.4372C22.4845 33.2514 22.5981 32.5147 22.6712 32.0406C22.687 31.9382 22.7009 31.8481 22.7125 31.7784C23.465 31.7933 24.23 31.7874 24.9866 31.7816C25.135 31.7805 25.2832 31.7793 25.4308 31.7784L28.0239 31.7724C28.102 31.7551 28.1043 31.7535 28.1205 31.7425C28.1265 31.7384 28.1345 31.7329 28.1491 31.7248C27.8033 31.487 20.4593 29.1384 19.6247 28.9898C18.5506 28.6674 17.3879 28.3491 16.1873 28.0205C11.1446 26.6402 5.43368 25.0771 2.81443 22.2533C0.388272 19.6371 1.2884 15.9627 6.62357 18.5728C8.14098 19.3108 9.43026 19.9041 10.7442 20.5087C12.5082 21.3205 14.3167 22.1527 16.7813 23.383C17.5021 23.7428 18.0894 24.0381 18.5806 24.2852C21.0194 25.5117 21.0898 25.5472 23.3921 26.3737C26.2236 27.3904 28.6498 27.7174 31.7376 27.5331C32.6378 27.4855 33.8419 27.4082 34.289 26.8434C34.4007 26.5116 33.9305 26.1917 33.34 25.79C32.6077 25.2918 31.6905 24.6679 31.4694 23.7397C31.3382 23.1867 31.368 22.4792 31.4753 21.9262C31.684 20.8382 32.3755 20.1841 33.1981 19.7442C34.2767 19.1678 34.9133 19.1337 36.1677 19.0663C36.2722 19.0607 36.3809 19.0549 36.4946 19.0485C36.7259 19.0958 36.9198 19.1274 37.0988 19.1566C37.4825 19.2192 37.7975 19.2706 38.265 19.4409C39.3082 19.8155 40.1487 20.6301 40.3156 21.7776C40.4393 22.624 40.1549 22.7147 39.5375 22.9117C39.5001 22.9236 39.4614 22.936 39.4215 22.9489C37.9372 23.1986 37.3947 25.7256 38.4558 26.9266C39.3321 27.9255 41.4006 28.2882 43.1948 28.1574C47.5794 28.032 48.0732 26.366 48.5438 24.7782C48.7424 24.108 48.937 23.4517 49.4182 22.9311C50.1932 22.0987 51.3615 22.3603 52.1782 22.8776C52.8562 23.3059 53.3738 24.0285 53.8831 24.7394C54.4977 25.5974 55.1002 26.4383 55.9575 26.7245C57.0126 27.0812 59.6713 27.0634 60.4462 25.9099C60.724 25.499 60.7106 25.1706 60.6935 24.752C60.6886 24.6315 60.6834 24.5035 60.6847 24.364C60.4701 23.0559 60.1482 21.9916 59.7667 20.7787C59.6672 20.4603 59.5617 20.1347 59.4548 19.805C59.1964 19.0081 58.9301 18.187 58.7235 17.3837C58.0022 14.6011 57.7578 12.4309 58.8666 9.78502C58.9289 9.63613 58.988 9.49131 59.0462 9.34904C59.1993 8.97429 59.3451 8.61734 59.5223 8.25101C59.7548 7.7813 60.0349 7.2224 60.3032 6.77646C61.865 4.23168 64.011 0.777199 67.0809 0.0934378C67.5161 -0.0849348 68.291 0.0220888 68.6904 0.164787C69.1196 0.319376 69.5071 0.676122 69.7098 1.00314C70.2224 1.85338 70.4489 2.98307 69.9363 3.91061C69.4117 4.87977 67.8559 5.61704 66.5087 6.03919C65.847 6.24729 65.078 6.49701 64.4402 6.75268C63.6712 7.06186 63.1883 7.43644 62.7115 7.87643C62.6883 7.90535 62.6654 7.93397 62.6426 7.96231C61.8992 8.88964 61.3899 9.52499 61.0602 10.9385C60.6533 12.6453 60.7937 13.4683 61.0378 14.8999C61.0548 14.9993 61.0722 15.1017 61.09 15.2075C61.1384 15.3326 61.1771 15.448 61.2144 15.5593C61.2782 15.7496 61.338 15.9281 61.4358 16.1232C62.0855 17.4386 62.6826 18.2645 63.2746 19.0834C63.7744 19.7747 64.2707 20.4611 64.7919 21.4327C65.168 22.1377 65.4038 22.9713 65.6273 23.7614C65.9881 25.0371 66.3168 26.1992 67.1525 26.5223C67.7545 26.7542 68.7262 26.445 69.1792 26.1953C70.4066 25.5131 70.4293 24.6068 70.4613 23.3311C70.4984 21.8496 70.548 19.8697 72.5115 17.1637C72.8811 16.6557 72.9675 16.5156 73.0717 16.3904C73.1675 16.2752 73.2784 16.1726 73.6381 15.8081C76.3445 13.0611 79.8317 14.7081 79.0806 17.2588C78.8663 17.9699 77.909 18.8552 77.2421 19.4721C77.0558 19.6444 76.8921 19.7958 76.7737 19.9166C76.5031 20.1943 76.137 20.5119 75.7474 20.85C74.9526 21.5396 74.0599 22.3141 73.6799 23.0084C73.5249 23.2878 73.4116 23.5851 73.2983 23.9062C73.1016 24.477 72.9466 25.3153 72.8811 25.9575C72.8095 26.7126 72.7678 27.5509 72.9288 28.2585C73.1612 29.2871 74.3594 30.5416 75.1701 30.9935C75.4679 31.1576 75.7982 31.322 76.139 31.4916C77.5517 32.1946 79.147 32.9886 79.3727 34.234C79.5136 34.9992 79.0331 35.2676 78.5632 35.5301C78.4964 35.5674 78.4298 35.6046 78.3653 35.6431C78.3174 35.6709 78.2467 35.7101 78.1614 35.7574C77.7364 35.9927 76.9484 36.4291 76.8094 36.6717L87.5215 36.6777C87.5135 36.7385 87.4501 36.8571 87.3779 36.992C87.2879 37.1601 87.1843 37.3536 87.1579 37.4922C87.433 37.4042 87.5851 37.3295 87.739 37.2539C88.0321 37.1101 88.3321 36.9628 89.5006 36.7133C89.9238 36.6241 90.3947 36.529 90.8239 36.4755C90.9934 36.4523 91.1765 36.4493 91.3599 36.4463C91.6927 36.4409 92.027 36.4355 92.2844 36.309L96.5049 34.228L98.5078 33.2588C98.6513 33.2223 98.6697 33.2279 98.6807 33.2212C98.6912 33.2149 98.6951 33.1975 98.7939 33.1221C98.9397 33.004 99.3881 32.8303 99.6582 32.7258C99.7415 32.6935 99.8079 32.6678 99.8431 32.6524L103.014 31.3503C103.153 31.3165 103.173 31.3 103.204 31.2735C103.228 31.2534 103.259 31.2274 103.354 31.1838L104.397 30.7973C104.516 30.7606 104.546 30.7387 104.572 30.72C104.601 30.6994 104.623 30.6827 104.755 30.6546C105.135 30.5695 105.511 30.4615 105.891 30.3528C106.572 30.1577 107.261 29.9601 107.992 29.8876C109.315 29.7568 110.424 29.6854 111.408 30.286C112.63 31.0292 112.928 32.6881 112.63 33.8237C112.593 33.9599 112.579 33.9908 112.553 34.0456C112.541 34.0721 112.526 34.1043 112.504 34.1567C111.986 35.3696 110.364 36.0296 109.148 36.2258L108.516 36.3447C108.505 36.3506 108.487 36.3566 108.475 36.3566L108.332 36.4577C108.598 36.5223 108.88 36.5728 109.163 36.6234C109.634 36.7078 110.11 36.7928 110.519 36.9452C111.329 37.2425 111.433 37.2516 111.522 37.294C111.601 37.3322 111.668 37.3974 112.224 37.7241L112.332 37.7895C113.011 38.1986 113.273 38.51 113.522 38.8056C113.631 38.9354 113.737 39.0621 113.875 39.1927C114.033 39.3401 114.033 39.3413 114.039 39.3714C114.043 39.3959 114.051 39.4395 114.15 39.597C115.333 41.4681 115.009 43.2223 114.658 45.1257ZM85.9716 23.7338C86.2578 24.2808 86.3114 24.9467 86.067 25.5591C85.8464 26.1239 85.3457 26.3677 84.5588 26.3083C83.4441 26.2191 81.8167 25.6423 81.322 24.9705C80.7795 24.2272 81.3875 22.7289 82.9195 22.3841C84.3144 22.0689 85.5543 22.9311 85.9716 23.7338ZM50.5111 26.7354C49.9773 27.4305 49.5692 27.9619 49.2326 29.6164C49.0953 29.3727 48.928 28.2373 48.8862 27.8628C48.6593 25.9249 49.597 23.4638 51.0902 24.0524C51.6456 24.2723 51.6814 24.95 51.3589 25.5028C51.0443 26.0412 50.7637 26.4066 50.5111 26.7354ZM25.4434 58.5779H19.6439C19.6224 58.3205 20.1205 55.6223 20.4555 53.808C20.5846 53.1088 20.6894 52.541 20.731 52.2946L22.9707 39.7815C23.1001 39.0876 23.2326 38.2984 23.3681 37.4918C23.6017 36.101 23.8441 34.6584 24.0936 33.5635L29.899 33.5516C29.8933 34.0185 29.4069 36.575 28.9172 39.1486C28.3842 41.9496 27.8474 44.7709 27.9221 44.9413C28.0259 44.852 28.0552 44.785 28.1041 44.6728C28.1171 44.6431 28.1315 44.6101 28.149 44.5727L33.6559 33.5576L39.2164 33.5516C39.1491 33.8055 35.6498 40.3119 34.2086 42.9914C33.8612 43.6373 33.6334 44.0609 33.6021 44.1209C33.5685 44.1842 33.5373 44.2369 33.5093 44.2844C33.3977 44.4731 33.3358 44.5778 33.3692 44.9294L34.4323 54.9221C34.4424 55.0154 34.4601 55.1725 34.4825 55.3707C34.5927 56.3471 34.8155 58.321 34.7907 58.5779L29.0629 58.5601C28.9607 58.1238 28.7343 55.6415 28.5715 53.8567C28.5058 53.1366 28.4504 52.5301 28.4178 52.2173L27.8086 46.0291C27.7786 45.9208 27.7768 45.9204 27.7693 45.9189C27.7649 45.918 27.7584 45.9167 27.7429 45.8924L27.1397 49.037C27.0633 49.4605 26.9906 49.8724 26.9184 50.2816C26.804 50.9295 26.6907 51.5708 26.5663 52.2411C26.4287 52.9871 26.2894 53.8251 26.1477 54.6777C25.9202 56.0466 25.6863 57.4534 25.4434 58.5779ZM90.9041 50.6777L96.4587 50.6836L95.8077 54.2266C94.9656 57.6327 91.7104 58.9227 88.091 58.8514C85.4749 58.7979 83.2949 58.1202 82.62 56.0337C82.2625 54.9087 82.4372 53.9127 82.6226 52.8551C82.6479 52.7112 82.6733 52.5661 82.6976 52.4194C82.8388 51.5724 82.986 50.7529 83.135 49.9236C83.1941 49.5947 83.2535 49.2643 83.3128 48.93C83.3839 48.528 83.4528 48.1281 83.5216 47.7293C83.6552 46.9546 83.7881 46.184 83.934 45.4109C83.9765 45.1778 84.0141 44.9517 84.0508 44.731C84.2051 43.804 84.3433 42.9735 84.7582 42.1236C87.0338 37.5285 93.9323 37.5582 96.2676 39.3297C97.0082 39.8944 97.5935 40.6612 97.7608 41.9274C97.8802 42.8131 97.6413 44.9888 97.3427 45.5892H91.8239C91.8098 45.2677 91.9129 44.8416 92.022 44.3909C92.1892 43.6998 92.3704 42.9508 92.1644 42.4327C91.8717 41.7134 90.3905 41.6242 89.9903 42.8964C89.832 43.3973 89.0901 47.5959 88.8696 48.8438L88.8376 49.0251C88.7293 49.6286 88.6123 50.243 88.4945 50.8616C88.4173 51.2667 88.3398 51.6737 88.2642 52.0806C88.2414 52.2008 88.2116 52.3383 88.1794 52.4869C87.9917 53.3522 87.7223 54.5944 88.2881 55.0053C88.7181 55.3203 89.4169 55.1658 89.7514 54.8864C89.9485 54.7199 90.0321 54.6248 90.1456 54.3573C90.4144 53.7213 90.8086 51.3613 90.9041 50.6777ZM72.1499 58.5601H66.5654L70.1371 38.4856L75.7156 38.4974C75.7067 38.8893 75.5504 39.6368 75.4238 40.242C75.3795 40.4538 75.3388 40.6482 75.3094 40.8039C75.2305 41.226 75.1534 41.6535 75.0771 42.0765C75.0148 42.422 74.9531 42.7644 74.8913 43.0985L74.2523 46.5463C74.2415 46.6118 74.2194 46.7023 74.1946 46.804C74.1226 47.0991 74.0276 47.4882 74.1209 47.6341C74.2284 47.5568 75.1482 45.6308 75.2855 45.3336L78.6601 38.4915L83.9997 38.5034C83.9777 38.6564 83.4744 39.5554 83.136 40.1598C83.0143 40.3772 82.9139 40.5566 82.8649 40.6494L79.4067 47.0694C79.1749 47.5062 79.1874 47.5864 79.2661 48.0897C79.2827 48.1959 79.3023 48.321 79.3231 48.4723L79.3609 48.7381C79.6352 50.6639 80.7021 58.1548 80.6908 58.566C80.1294 58.6195 75.2437 58.6255 75.0645 58.5304C74.987 58.4628 74.9409 57.831 74.9135 57.4557C74.9071 57.3688 74.9018 57.2956 74.8973 57.2464C74.8751 57.013 74.8563 56.778 74.8373 56.5404C74.8205 56.3301 74.8035 56.1178 74.7838 55.9029L74.0731 48.0859C73.9641 48.216 73.9506 48.3367 73.9303 48.5172C73.9228 48.584 73.9144 48.659 73.8999 48.7457C73.8864 48.824 73.8721 48.903 73.8575 48.9833C73.8334 49.1164 73.8087 49.2527 73.7864 49.3937C73.7253 49.7306 73.5834 50.5548 73.4072 51.5787C72.9459 54.2588 72.2493 58.3063 72.1499 58.5601ZM106.075 49.8997C106.182 49.4287 106.296 48.9269 106.344 48.4782C106.16 48.5446 105.965 48.6632 105.781 48.7752C105.701 48.8237 105.623 48.8709 105.549 48.9122C104.838 49.3045 104.056 49.7741 103.704 50.5469C103.528 50.9203 103.431 51.5191 103.348 52.0357C103.327 52.1688 103.306 52.2965 103.286 52.4135C103.269 52.5029 103.249 52.5996 103.229 52.7006C103.111 53.2712 102.964 53.9806 103.309 54.3038C103.817 54.7734 104.671 54.4703 104.994 54.0779C105.358 53.6381 105.477 52.9901 105.585 52.36C105.682 51.7727 105.789 51.2557 105.904 50.6958C105.923 50.6039 105.942 50.5108 105.961 50.4161C105.996 50.2514 106.035 50.0778 106.075 49.8997ZM104.456 45.5952L98.9792 45.5773C98.9553 45.2801 99.2838 43.5443 99.3615 43.2293C99.5466 42.4921 99.8094 41.862 100.204 41.2914C100.616 40.6969 100.98 40.2927 101.547 39.8587C102.031 39.4902 102.688 39.1216 103.345 38.872C105.86 37.9327 110.041 37.8376 112.006 40.0549C113.163 41.3671 112.872 43.0885 112.628 44.5379L112.627 44.543L110.919 53.8937C110.853 54.2506 110.765 54.7624 110.669 55.3238C110.461 56.5388 110.214 57.9859 110.059 58.5957L104.558 58.5898L104.91 56.2358C104.836 56.2944 104.755 56.4128 104.645 56.5717C104.443 56.8639 104.146 57.2931 103.632 57.7397C103.154 58.1618 102.623 58.4828 101.852 58.6849C100.162 59.1308 98.4237 58.7146 97.701 57.6387C96.9282 56.4902 97.226 54.9002 97.4893 53.494C97.5191 53.3353 97.5484 53.1789 97.5756 53.0258C97.5946 52.9191 97.6128 52.8139 97.6309 52.7099C97.8635 51.3703 98.0593 50.243 99.1345 49.1619C100.24 48.0515 101.766 47.3752 103.197 46.7409C105.099 45.8979 106.834 45.1292 107.192 43.5146C107.389 42.5991 107.323 41.8501 106.236 41.9215C105.346 41.9809 105.077 42.5338 104.928 43.3541C104.906 43.4686 104.88 43.6146 104.851 43.7783C104.744 44.3707 104.597 45.1946 104.456 45.5952ZM35.1251 58.8454L35.8837 54.5297C36.7975 54.3692 37.0842 54.1612 37.4366 53.4716C37.7292 52.895 37.9263 52.1817 38.0936 51.5337C38.5051 49.912 39.2733 45.3719 39.6444 43.1781C39.6665 43.0478 39.6871 42.9258 39.7062 42.8131C39.8018 42.2187 40.3871 38.8422 40.5125 38.4915L53.6106 38.4677L50.0151 58.5601L44.4485 58.5482L47.399 42.1414L45.0816 42.1652L44.0245 47.7471C43.9384 48.1899 43.8573 48.642 43.7754 49.0983C43.2265 52.1574 42.6439 55.4045 40.3154 57.3236C38.7872 58.5844 37.1233 58.703 35.2798 58.8344C35.2284 58.838 35.1768 58.8417 35.1251 58.8454ZM59.6908 46.0172C59.9775 46.4274 61.0586 46.5819 61.632 46.469L62.4263 41.8918C60.4792 41.868 60.0014 42.2603 59.6669 43.9783C59.5594 44.5073 59.3743 45.5773 59.6908 46.0172ZM56.2134 48.177C56.4056 48.1375 56.6211 48.0933 56.7045 48.0443C56.6693 48.0064 56.4845 47.9441 56.2546 47.8666C56.0161 47.7862 55.7289 47.6895 55.5099 47.5866C54.1303 46.9327 54.0586 45.4406 54.2139 43.9961C54.4468 41.8501 55.0859 40.4472 56.4656 39.5912C57.899 38.6996 59.9835 38.5093 62.0082 38.4915C62.9878 38.4796 68.0168 38.4261 68.5961 38.4974L65.0185 58.5601L59.428 58.5482L61.0407 49.7504C59.8163 49.8039 59.0876 49.8633 58.6755 50.7906C58.4244 51.3517 58.2748 52.2155 58.1462 52.9582C58.1126 53.152 58.0805 53.3375 58.0483 53.5073C57.9974 53.7844 57.947 54.0743 57.8959 54.3677C57.7795 55.0373 57.6598 55.7257 57.5227 56.325C57.289 57.3454 57.0552 57.6746 56.6113 58.2996C56.5562 58.3773 56.4978 58.4595 56.4357 58.5482H50.8094C50.8498 58.462 50.9056 58.3995 50.9773 58.3189C51.0541 58.2328 51.1491 58.126 51.2634 57.9478C52.0349 56.7501 52.3176 54.9405 52.5694 53.3283C52.6276 52.956 52.6841 52.5942 52.7446 52.253C53.1388 50.0238 53.7301 48.9003 55.934 48.2405C55.9995 48.2209 56.1026 48.1997 56.2134 48.177ZM3.99279 22.0299C4.05751 22.1309 4.11613 22.2224 4.1627 22.3582C3.93574 22.269 3.5057 21.9123 3.28471 21.7281C0.859802 19.7248 2.50229 17.7571 3.2011 18.9282C3.36445 19.2011 3.42523 19.7292 3.46692 20.0915L3.46987 20.1171C3.61639 21.4424 3.82509 21.7682 3.99279 22.0299ZM1.01835 52.972C0.939518 53.074 0.861077 53.1756 0.734375 53.2933C0.800075 52.6394 1.23608 51.611 1.62431 51.07C1.89308 50.7074 2.92635 49.6552 3.63113 50.3507C4.26068 50.9825 3.21328 51.5105 2.63672 51.8012C2.55141 51.8442 2.47641 51.882 2.41867 51.9142C1.42066 52.4513 1.21824 52.7133 1.01835 52.972ZM107.902 32.0299C106.553 31.6316 106.188 31.6613 104.994 31.8515C105.047 31.6613 105.704 31.269 105.949 31.1441C107.156 30.5378 109.33 30.2168 109.838 31.1917C110.082 31.6613 109.718 32.0774 109.336 32.1963C108.932 32.3175 108.378 32.1629 107.991 32.0544C107.96 32.0459 107.931 32.0376 107.902 32.0299ZM73.1563 19.2368C73.1472 19.2448 73.1358 19.2547 73.1174 19.273C73.1234 18.2565 73.6789 17.2221 74.1507 16.6277C76.0799 14.2321 77.37 15.9738 76.1874 16.8655C75.9154 17.0706 75.5897 17.266 75.2504 17.4696C74.6361 17.8381 73.9772 18.2333 73.5116 18.7618L73.219 19.166C73.1836 19.213 73.1741 19.2213 73.1563 19.2368ZM124.051 25.9701C123.898 26.0134 123.72 26.0637 123.503 26.121C123.73 25.6693 124.799 24.9321 125.48 24.6706C128.126 23.6422 129.028 25.3007 127.905 25.8179C127.516 25.9956 127.04 25.9389 126.598 25.8862C126.537 25.879 126.477 25.8719 126.418 25.8654C124.969 25.7108 124.85 25.7445 124.051 25.9701ZM35.2173 21.6317C34.5688 21.4596 33.659 21.2182 32.0134 21.4487C32.0516 21.3901 32.042 21.3892 32.0417 21.3871C32.0414 21.3849 32.051 21.3813 32.1328 21.3119L33.0168 20.7532C33.0481 20.7353 33.079 20.7175 33.1098 20.6999C33.4375 20.5118 33.7426 20.3367 34.1576 20.2063C34.9937 19.9507 36.2181 19.8912 36.6601 20.5927C36.9468 21.0444 36.8094 21.5319 36.3615 21.7043C35.9993 21.8392 35.6727 21.7525 35.2173 21.6317ZM53.4971 81.3988C52.2907 81.8744 52.2608 80.1088 52.3444 79.3361L52.8222 76.4589C53.0391 77.088 53.2523 77.7525 53.462 78.406C53.5238 78.5985 53.5853 78.79 53.6465 78.9794C53.6754 79.0664 53.7072 79.1572 53.7397 79.2503C54.0232 80.0602 54.3703 81.0522 53.4971 81.3988ZM131.324 67.5804C131.174 67.5088 131.019 67.4348 130.885 67.3401C132.199 67.2806 133.579 67.8038 134.535 68.2971C135.036 68.5528 135.652 68.9927 135.89 69.2483C135.953 69.3153 136.008 69.3691 136.058 69.4181C136.194 69.5515 136.294 69.6496 136.416 69.8843C136.852 70.7344 136.01 71.3942 134.744 70.3896C134.373 70.0924 134.045 69.7668 133.709 69.4334C133.124 68.8532 132.515 68.2496 131.62 67.7324C131.529 67.6788 131.428 67.6302 131.324 67.5804Z" fill="#020575"/>
</svg>
